{"title":"Austin.Powers.Goldmember.2002.1080p.BRRip.x264.AC3-Kay","uid":9763986,"size":2789828117,"categoryP":"video","categoryS":"hd___movies","magnet":"?xt=urn:btih:9c52ddcca187c0a04dfd12da5c7ace52f9ab7b8b&amp;dn=Austin.Powers.Goldmember.2002.1080p.BRRip.x264.AC3-Kay&amp;tr=udp%3A%2F%2Ftracker.openbittorrent.com%3A80&amp;tr=udp%3A%2F%2Fopen.demonii.com%3A1337&amp;tr=udp%3A%2F%2Ftracker.coppersurfer.tk%3A6969&amp;tr=udp%3A%2F%2Fexodus.desync.com%3A6969","seeders":5,"leechers":3,"uploader":"thegame2012","files":-1,"time":1394856256,"description":"Austin.Powers.Goldmember.2002.1080p.BRRip.x264.AC3-Kay\n\n\nIncludes Audio Commentary with Jay Roach and Mike Myers on Track Two!\n\n\nGeneral\nFormat                           : Matroska\nFile size                        : 2.57 GiB\nDuration                         : 1h 34mn\nOverall bit rate                 : 3 894 Kbps\n\n\nVideo\nID                               : 1\nFormat                           : AVC\nFormat/Info                      : Advanced Video Codec\nFormat profile                   : &lt;a class=&quot;__cf_email__&quot; href=&quot;/cdn-cgi/l/email-protection&quot; data-cfemail=&quot;1058797778505c253e20&quot;&gt;[email&amp;#160;protected]&lt;/a&gt;&lt;script cf-hash='f9e31' type=&quot;text/javascript&quot;&gt;\n/* &lt;![CDATA[ */!function(){try{var t=&quot;currentScript&quot;in document?document.currentScript:function(){for(var t=document.getElementsByTagName(&quot;script&quot;),e=t.length;e--;)if(t[e].getAttribute(&quot;cf-hash&quot;))return t[e]}();if(t&amp;&amp;t.previousSibling){var e,r,n,i,c=t.previousSibling,a=c.getAttribute(&quot;data-cfemail&quot;);if(a){for(e=&quot;&quot;,r=parseInt(a.substr(0,2),16),n=2;a.length-n;n+=2)i=parseInt(a.substr(n,2),16)^r,e+=String.fromCharCode(i);e=document.createTextNode(e),c.parentNode.replaceChild(e,c)}}}catch(u){}}();/* ]]&gt; */&lt;/script&gt;\nFormat settings, CABAC           : Yes\nFormat settings, ReFrames        : 5 frames\nDuration                         : 1h 34mn\nBit rate                         : 3 177 Kbps\nWidth                            : 1 920 pixels\nHeight                           : 816 pixels\nDisplay aspect ratio             : 2.35:1\nFrame rate                       : 23.976 fps\nResolution                       : 8 bits\nColorimetry                      : 4:2:0\nScan type                        : Progressive\nBits/(Pixel*Frame)               : 0.085\nStream size                      : 2.10 GiB (81%)\nWriting library                  : x264 core 133 r2334 a3ac64b\n\n\nAudio #1\nID                               : 2\nFormat                           : AC-3\nFormat/Info                      : Audio Coding 3\nCodec ID                         : A_AC3\nDuration                         : 1h 34mn\nBit rate mode                    : Constant\nBit rate                         : 448 Kbps\nChannel(s)                       : 6 channels\nChannel positions                : Front: L C R, Surround: L R, LFE\nSampling rate                    : 48.0 KHz\nStream size                      : 303 MiB (12%)\nLanguage                         : English\n\nAudio #2\nID                               : 3\nFormat                           : AC-3\nFormat/Info                      : Audio Coding 3\nFormat profile                   : Dolby Digital\nCodec ID                         : A_AC3\nDuration                         : 1h 34mn\nBit rate mode                    : Constant\nBit rate                         : 192 Kbps\nChannel(s)                       : 2 channels\nChannel positions                : L R\nSampling rate                    : 48.0 KHz\nStream size                      : 130 MiB (5%)\nLanguage                         : English\n\n\n\nScreencaps: &lt;a href=&quot;\nhttp://imagizer.imageshack.us/v2/1024x768q90/593/t3vq.jpg&quot; rel=&quot;nofollow&quot; target=&quot;_NEW&quot;&gt;\nhttp://imagizer.imageshack.us/v2/1024x768q90/593/t3vq.jpg&lt;/a&gt; &lt;a href=&quot;\nhttp://imagizer.imageshack.us/v2/1024x768q90/199/kcjk.jpg&quot; rel=&quot;nofollow&quot; target=&quot;_NEW&quot;&gt;\nhttp://imagizer.imageshack.us/v2/1024x768q90/199/kcjk.jpg&lt;/a&gt; &lt;a href=&quot;\nhttp://imagizer.imageshack.us/v2/1024x768q90/829/w8at.jpg&quot; rel=&quot;nofollow&quot; target=&quot;_NEW&quot;&gt;\nhttp://imagizer.imageshack.us/v2/1024x768q90/829/w8at.jpg&lt;/a&gt; &lt;a href=&quot;\nhttp://imagizer.imageshack.us/v2/1024x768q90/841/l8uh.jpg&quot; rel=&quot;nofollow&quot; target=&quot;_NEW&quot;&gt;\nhttp://imagizer.imageshack.us/v2/1024x768q90/841/l8uh.jpg&lt;/a&gt;\n\n\n\nSample included. Please rate/comment/seed!\n\nThanks!\n\n-Kay","torrent":{"xt":"urn:btih:9c52ddcca187c0a04dfd12da5c7ace52f9ab7b8b","amp;dn":"Austin.Powers.Goldmember.2002.1080p.BRRip.x264.AC3-Kay","amp;tr":["udp%3A%2F%2Ftracker.openbittorrent.com%3A80","udp%3A%2F%2Fopen.demonii.com%3A1337","udp%3A%2F%2Ftracker.coppersurfer.tk%3A6969","udp%3A%2F%2Fexodus.desync.com%3A6969"],"infoHash":"9c52ddcca187c0a04dfd12da5c7ace52f9ab7b8b","infoHashBuffer":{"type":"Buffer","data":[156,82,221,204,161,135,192,160,77,253,18,218,92,122,206,82,249,171,123,139]},"announce":[],"urlList":[]}}